<?xml version="1.0" standalone="no"?>
<!DOCTYPE svg PUBLIC "-//W3C//DTD SVG 20010904//EN"
 "http://www.w3.org/TR/2001/REC-SVG-20010904/DTD/svg10.dtd">
<svg version="1.0" xmlns="http://www.w3.org/2000/svg"
 width="100%" height="100%" viewBox="0 0 1024.000000 1024.000000"
 preserveAspectRatio="xMidYMid meet">
<metadata>
Created by potrace 1.16, written by Peter Selinger 2001-2019
</metadata>
<g transform="translate(0.000000,1024.000000) scale(0.100000,-0.100000)"
fill="#3956de" stroke="none">
<path d="M1850 8744 c0 -63 29 -254 51 -338 30 -117 21 -115 -131 24 -66 61
-125 110 -130 110 -16 0 -12 -33 15 -118 83 -264 198 -437 360 -542 71 -46 80
-62 70 -126 -10 -72 -8 -491 4 -604 33 -307 126 -621 230 -774 39 -59 39 -76
-1 -133 -62 -90 -70 -127 -118 -498 -32 -251 -32 -252 46 -285 24 -11 47 -26
50 -34 3 -8 -15 -50 -40 -93 -149 -259 -239 -551 -268 -871 -26 -291 35 -533
160 -643 77 -68 190 -99 287 -80 77 15 76 17 60 -209 -21 -277 -20 -403 3
-422 31 -27 311 -178 331 -178 25 0 31 19 31 104 0 126 12 227 27 233 9 4 70
-49 161 -139 150 -147 271 -252 407 -353 120 -89 375 -255 391 -255 17 0 16
-2 14 123 -1 77 1 98 13 103 8 3 121 -55 258 -134 419 -239 947 -512 991 -512
33 0 692 347 1018 535 207 120 205 119 224 112 17 -7 18 -17 12 -105 -3 -53
-2 -103 2 -110 13 -19 41 -4 232 123 214 143 397 291 581 472 86 84 161 153
167 153 16 0 20 -26 27 -190 4 -91 11 -150 18 -157 10 -10 45 5 167 71 84 46
164 93 177 104 27 24 27 -3 2 430 -6 101 -8 187 -4 190 4 4 50 7 103 7 85 1
105 4 159 29 161 74 240 240 250 526 13 356 -90 741 -283 1061 -19 32 -32 63
-29 70 3 8 29 28 58 44 47 27 52 34 55 69 2 21 -9 127 -23 235 -47 352 -57
392 -117 479 -17 25 -31 54 -31 66 0 12 17 48 38 80 112 175 194 454 226 761
8 78 10 216 7 398 -5 278 -5 278 66 331 173 129 267 267 352 520 35 103 42
146 23 146 -6 0 -62 -48 -125 -107 -63 -60 -122 -110 -131 -111 -18 -4 -18 -5
15 178 25 141 32 252 15 257 -6 2 -55 -58 -110 -134 -126 -178 -223 -295 -342
-413 -85 -84 -115 -106 -261 -189 -484 -276 -619 -360 -789 -488 -46 -35 -90
-63 -97 -63 -7 0 -66 29 -131 65 -404 221 -963 345 -1553 345 -540 0 -1131
-140 -1520 -359 -49 -28 -97 -51 -105 -51 -9 0 -59 33 -113 73 -181 138 -354
246 -737 462 -196 111 -216 125 -306 215 -108 107 -212 235 -348 428 -51 73
-97 132 -102 132 -5 0 -9 -21 -9 -46z m6038 -1110 c10 -205 -1 -492 -23 -619
-35 -201 -138 -493 -181 -509 -10 -4 -31 11 -57 41 -23 26 -66 73 -94 105 -29
32 -53 66 -53 75 0 10 23 64 52 120 64 125 60 134 -39 104 -78 -23 -113 -26
-113 -10 0 6 31 66 70 133 72 126 97 182 86 193 -9 10 -140 -46 -244 -105 -52
-29 -100 -51 -108 -48 -22 8 -46 54 -39 75 10 32 362 380 476 472 59 46 135
101 170 121 87 52 88 50 97 -148z m-5409 126 c40 -27 107 -78 149 -112 102
-83 450 -425 458 -450 7 -24 -24 -71 -50 -76 -10 -2 -79 28 -154 66 -167 85
-182 90 -182 64 0 -11 36 -84 79 -163 48 -87 76 -148 71 -153 -6 -6 -42 0 -91
13 -56 15 -85 19 -92 12 -7 -7 7 -45 43 -120 53 -110 53 -110 26 -148 -55 -77
-172 -196 -186 -188 -21 13 -87 164 -123 285 -62 204 -72 294 -72 650 0 173 3
327 8 343 11 39 33 35 116 -23z m1746 -370 c89 -13 219 -58 292 -101 83 -49
182 -153 226 -236 49 -93 70 -179 70 -283 0 -362 -318 -681 -737 -739 -369
-52 -691 80 -810 333 -100 209 -67 451 89 671 133 187 371 324 620 358 60 8
182 6 250 -3z m2062 -1 c295 -40 566 -231 683 -480 151 -324 51 -654 -241
-798 -368 -180 -885 -78 -1132 224 -58 71 -120 195 -143 284 -22 87 -16 263
12 342 108 306 442 480 821 428z m-842 -48 c75 -8 77 -20 12 -95 -48 -56 -48
-56 -305 -55 -141 0 -270 -3 -285 -6 -26 -7 -34 -1 -88 56 -32 35 -58 71 -56
79 1 10 19 17 52 21 68 8 595 8 670 0z m-111 -291 c13 -13 13 -23 -4 -85 -11
-38 -23 -104 -26 -147 -4 -43 -12 -82 -18 -85 -12 -8 -321 -7 -334 1 -5 3 -12
40 -15 83 -4 43 -15 109 -26 148 -30 105 -32 104 231 101 142 -1 180 -4 192
-16z m-2257 -517 c2 -98 4 -200 5 -226 3 -49 3 -49 -85 -109 -69 -48 -91 -58
-100 -49 -17 17 -11 438 6 464 14 21 136 96 157 97 13 0 15 -27 17 -177z
m4183 137 c37 -22 71 -47 74 -57 10 -24 28 -336 24 -408 -2 -45 -7 -61 -19
-63 -13 -2 -153 84 -193 119 -5 4 -1 46 9 96 14 68 16 118 13 221 -5 111 -3
132 9 132 8 0 45 -18 83 -40z m-2036 -196 c18 -7 80 -150 71 -164 -4 -6 -77
-10 -176 -10 -134 0 -171 3 -175 14 -9 23 47 147 70 156 24 10 187 13 210 4z
m-2472 -224 c-1 -102 -4 -194 -7 -206 -6 -27 -260 -218 -276 -208 -14 8 -5
273 12 339 8 32 33 62 127 153 64 61 124 111 132 109 13 -2 15 -30 12 -187z
m4870 83 c61 -60 116 -120 124 -135 14 -26 34 -206 34 -305 0 -46 -3 -53 -20
-53 -28 0 -259 177 -264 204 -8 39 -16 382 -9 389 14 15 30 3 135 -100z
m-2177 -281 c170 -159 394 -259 665 -297 252 -35 483 -6 677 85 130 61 221
133 281 223 27 41 56 48 72 16 26 -47 -26 -155 -113 -235 -37 -34 -92 -70
-150 -99 -442 -214 -1126 -116 -1531 219 -50 41 -50 41 -215 41 -166 0 -166 0
-256 -68 -226 -170 -573 -288 -894 -304 -389 -18 -746 120 -851 329 -16 34
-30 71 -30 82 0 23 26 66 39 66 5 0 29 -28 55 -63 90 -123 252 -223 442 -274
88 -23 119 -26 274 -27 146 -1 194 3 288 22 249 50 451 147 600 286 48 46 74
62 105 67 23 4 137 7 254 5 211 -2 211 -2 288 -74z m1987 -275 c35 -32 36 -35
42 -127 12 -164 36 -395 57 -553 91 -691 207 -979 452 -1126 62 -38 40 -71
-47 -71 -67 0 -127 33 -198 109 -157 166 -256 483 -313 1002 -29 269 -68 767
-61 786 9 21 30 15 68 -20z m-4557 13 c7 -12 -28 -474 -56 -730 -60 -557 -146
-856 -299 -1038 -86 -103 -189 -145 -274 -112 -40 15 -31 35 30 70 166 94 282
300 354 634 54 246 119 720 135 981 4 55 11 115 17 132 15 50 76 91 93 63z
m2740 -255 c93 -9 176 -18 183 -20 21 -8 14 -39 -38 -159 -73 -170 -67 -187
36 -115 67 48 212 159 263 202 32 28 38 29 95 23 112 -11 504 -124 526 -151
16 -20 26 -17 -265 -70 -438 -79 -539 -112 -632 -205 -88 -88 -154 -241 -154
-357 0 -79 43 -203 71 -203 5 0 29 35 53 78 63 109 63 109 139 79 95 -38 175
-50 286 -44 264 14 399 139 462 426 10 46 23 88 28 93 5 5 69 21 142 35 133
27 133 27 167 -13 89 -102 214 -328 233 -419 5 -27 23 -174 40 -325 44 -413
43 -390 27 -395 -7 -3 -69 21 -138 54 -200 97 -489 181 -489 143 0 -6 87 -98
193 -204 231 -231 310 -324 305 -365 -5 -45 -31 -38 -104 27 -114 102 -336
260 -366 260 -16 0 -7 -28 53 -160 66 -146 139 -349 139 -386 0 -17 -19 -38
-67 -77 -123 -97 -367 -262 -556 -376 -65 -39 -69 -31 -62 126 7 134 18 203
34 203 22 0 117 110 142 164 35 75 54 187 38 217 -11 21 -15 21 -272 17 -263
-5 -317 -12 -317 -42 0 -16 33 -27 233 -77 84 -21 131 -37 135 -47 3 -10 -11
-30 -42 -58 -86 -78 -213 -124 -344 -124 -132 0 -312 48 -420 112 -71 42 -152
119 -152 144 0 11 23 38 51 63 49 42 68 74 118 194 11 28 13 29 61 22 49 -7
50 -6 104 45 55 52 124 167 144 242 16 58 3 68 -124 85 -159 23 -758 23 -903
1 -123 -19 -135 -28 -120 -83 20 -72 88 -190 139 -240 49 -48 53 -50 107 -50
57 0 57 0 78 -60 28 -81 55 -123 109 -168 25 -21 46 -45 46 -53 0 -33 -101
-114 -205 -165 -215 -105 -469 -118 -626 -32 -50 27 -139 105 -139 122 0 17
28 26 192 66 167 40 202 55 181 76 -20 20 -110 27 -355 28 -228 1 -228 1 -234
-25 -10 -38 3 -126 28 -191 16 -44 39 -76 93 -131 73 -72 73 -72 79 -175 6
-102 9 -181 7 -204 -1 -7 -8 -13 -17 -13 -48 0 -646 410 -659 452 -11 34 65
252 160 455 25 53 42 100 37 105 -17 17 -238 -134 -364 -250 -80 -74 -110 -86
-116 -47 -5 37 61 118 285 346 123 124 223 229 223 233 0 12 -63 6 -140 -14
-116 -30 -239 -75 -369 -136 -76 -36 -118 -51 -125 -44 -10 10 -5 77 40 480
28 260 44 322 115 445 58 103 153 233 175 242 14 5 196 -28 261 -48 29 -9 33
-16 43 -67 48 -249 134 -370 305 -434 51 -19 80 -22 200 -22 129 0 146 2 213
27 40 16 83 27 94 25 15 -2 37 -28 70 -83 26 -44 54 -81 61 -83 16 -3 51 72
69 147 33 143 -78 379 -220 470 -93 59 -230 94 -632 161 -102 17 -189 35 -194
40 -17 17 139 74 355 129 216 55 190 61 372 -78 280 -213 283 -213 178 28 -44
102 -49 126 -27 134 13 5 308 31 471 41 115 7 530 -4 700 -19z m-2105 -14 c0
-4 -48 -30 -107 -57 -59 -27 -154 -77 -212 -111 -64 -38 -109 -59 -114 -54
-14 14 1 96 21 114 27 25 315 108 400 116 6 0 12 -3 12 -8z m3429 -37 c159
-44 208 -66 221 -99 13 -33 13 -82 1 -89 -5 -4 -47 17 -93 45 -46 28 -140 78
-210 112 -181 87 -158 95 81 31z m-3056 -413 c4 -4 16 -40 27 -80 37 -132 79
-188 160 -212 64 -19 114 1 181 72 31 32 60 59 66 59 13 0 38 -29 47 -54 5
-14 -5 -30 -42 -66 -119 -114 -332 -106 -445 19 -47 52 -64 87 -88 178 -23 93
-16 108 46 98 22 -3 43 -9 48 -14z m2566 10 c19 -12 10 -87 -20 -166 -32 -85
-113 -164 -193 -189 -120 -38 -261 -4 -334 79 -37 42 -39 54 -12 83 28 29 46
28 67 -5 60 -98 150 -136 236 -99 64 27 117 110 132 206 11 73 31 93 95 98 8
1 21 -2 29 -7z m-1229 -1831 c186 -77 390 -120 566 -120 86 0 106 -3 111 -16
17 -46 -125 -312 -237 -442 -60 -70 -76 -67 -106 23 -13 39 -24 71 -24 73 0 1
-6 2 -13 2 -8 0 -38 -37 -67 -82 -56 -86 -214 -252 -287 -301 -41 -28 -42 -28
-75 -11 -56 29 -250 232 -302 317 -27 42 -52 77 -56 77 -15 0 -29 -26 -46 -89
-10 -35 -25 -66 -33 -69 -32 -12 -177 183 -246 331 -53 114 -67 161 -52 176 6
6 51 11 106 11 178 0 372 40 551 114 47 19 97 35 111 35 14 1 59 -12 99 -29z"/>
<path d="M3940 7256 c-163 -35 -271 -94 -385 -210 -131 -132 -185 -253 -185
-411 0 -286 243 -469 600 -452 213 10 369 75 507 212 65 64 91 99 119 159 135
283 -2 583 -310 682 -100 32 -249 40 -346 20z m108 -114 c2 -7 -25 -43 -60
-80 -62 -65 -113 -122 -313 -347 -54 -60 -104 -114 -111 -118 -26 -15 -34 4
-34 74 0 213 164 408 392 469 80 21 119 22 126 2z"/>
<path d="M6030 7254 c-259 -51 -430 -247 -430 -494 0 -220 172 -436 421 -528
267 -98 588 -54 745 102 77 78 107 147 112 261 7 164 -47 299 -176 436 -181
192 -420 272 -672 223z m170 -107 c0 -8 -10 -22 -21 -33 -12 -10 -105 -113
-207 -227 -102 -114 -190 -206 -196 -204 -21 7 -36 53 -36 114 0 198 179 360
403 362 41 1 57 -3 57 -12z"/>
<path d="M3928 3932 c-18 -4 -58 -97 -58 -136 0 -13 8 -27 17 -30 23 -9 512
-28 524 -20 32 20 -28 66 -129 99 -104 33 -337 91 -354 87z"/>
<path d="M6285 3933 c-88 -18 -369 -99 -411 -119 -52 -24 -73 -49 -56 -66 5
-5 123 -4 272 1 206 8 267 13 278 25 12 12 12 22 -4 76 -20 65 -43 90 -79 83z"/>
</g>
</svg>
